<?xml version="1.0" encoding="utf-8"?>
<!-- Generator: Adobe Illustrator 16.0.4, SVG Export Plug-In . SVG Version: 6.00 Build 0)  -->
<!DOCTYPE svg PUBLIC "-//W3C//DTD SVG 1.1//EN" "http://www.w3.org/Graphics/SVG/1.1/DTD/svg11.dtd">
<svg version="1.1" id="Ebene_1" xmlns="http://www.w3.org/2000/svg" xmlns:xlink="http://www.w3.org/1999/xlink" x="0px" y="0px"
	 width="97px" height="80px" viewBox="0 0 97 80" enable-background="new 0 0 97 80" xml:space="preserve">
<g>
	<linearGradient id="SVGID_1_" gradientUnits="userSpaceOnUse" x1="-9.5654" y1="8.0264" x2="44.0916" y2="71.9724">
		<stop  offset="0.5" style="stop-color:#EFF1F3"/>
		<stop  offset="0.9998" style="stop-color:#AEB9C2"/>
	</linearGradient>
	<rect y="-0.001" fill="url(#SVGID_1_)" width="34.525" height="80"/>
	<linearGradient id="SVGID_2_" gradientUnits="userSpaceOnUse" x1="30.0713" y1="3.7354" x2="90.9277" y2="76.2612">
		<stop  offset="0.5" style="stop-color:#EFF1F3"/>
		<stop  offset="0.9998" style="stop-color:#AEB9C2"/>
	</linearGradient>
	<rect x="34.525" y="-0.001" fill="url(#SVGID_2_)" width="51.948" height="80"/>
	<linearGradient id="SVGID_3_" gradientUnits="userSpaceOnUse" x1="69.8672" y1="13.9351" x2="113.6088" y2="66.0642">
		<stop  offset="0.5" style="stop-color:#EFF1F3"/>
		<stop  offset="0.9998" style="stop-color:#AEB9C2"/>
	</linearGradient>
	<rect x="86.474" y="-0.001" fill="url(#SVGID_3_)" width="10.526" height="80"/>
	<g opacity="0.4">
		<circle cx="89.374" cy="27.993" r="1.684"/>
		<circle cx="94.099" cy="27.993" r="1.684"/>
	</g>
	<g opacity="0.4">
		<circle cx="89.374" cy="42.573" r="1.684"/>
		<circle cx="94.099" cy="42.573" r="1.684"/>
	</g>
	<g opacity="0.4">
		<circle cx="89.374" cy="56.859" r="1.684"/>
		<circle cx="94.099" cy="56.859" r="1.684"/>
	</g>
	<g opacity="0.4">
		<circle cx="89.374" cy="71.832" r="1.684"/>
		<circle cx="94.099" cy="71.832" r="1.684"/>
	</g>
	<rect x="88.578" y="3.459" opacity="0.4" width="6.316" height="14.309"/>
	<g>
		<rect x="52.814" y="9.135" opacity="0.4" width="20.382" height="1.722"/>
		<rect x="52.814" y="13.108" opacity="0.4" width="20.382" height="1.722"/>
		<rect x="52.814" y="17.081" opacity="0.4" width="20.382" height="1.722"/>
		<rect x="52.814" y="21.053" opacity="0.4" width="20.382" height="1.722"/>
		<rect x="52.814" y="25.026" opacity="0.4" width="20.382" height="1.722"/>
		<rect x="52.814" y="28.999" opacity="0.4" width="20.382" height="1.722"/>
		<rect x="52.814" y="32.971" opacity="0.4" width="20.382" height="1.722"/>
		<rect x="52.814" y="36.944" opacity="0.4" width="20.382" height="1.722"/>
		<rect x="52.814" y="40.917" opacity="0.4" width="20.382" height="1.722"/>
		<rect x="52.814" y="44.89" opacity="0.4" width="20.382" height="1.722"/>
		<rect x="52.814" y="48.862" opacity="0.4" width="20.382" height="1.722"/>
		<rect x="52.814" y="52.835" opacity="0.4" width="20.382" height="1.722"/>
		<rect x="52.814" y="56.808" opacity="0.4" width="20.382" height="1.722"/>
		<rect x="52.814" y="60.78" opacity="0.4" width="20.382" height="1.722"/>
		<rect x="52.814" y="64.753" opacity="0.4" width="20.382" height="1.722"/>
		<rect x="52.814" y="68.726" opacity="0.4" width="20.382" height="1.722"/>
	</g>
	<rect x="73.196" y="-0.001" fill="#C31924" width="8.994" height="80"/>
	<g>
		<path fill="#FFFFFF" d="M78.978,77.776h-2.568v-0.78c0-0.457,0.146-0.812,0.664-0.812c0.227,0,0.429,0.082,0.542,0.291h0.008
			c0.156-0.273,0.294-0.332,0.612-0.332c0.52,0,0.742,0.293,0.742,0.784V77.776z M77.42,77.174c-0.018-0.265,0-0.388-0.305-0.388
			c-0.253,0-0.243,0.175-0.243,0.388H77.42z M78.516,77.174c-0.006-0.302,0.014-0.428-0.331-0.428c-0.299,0-0.291,0.171-0.302,0.428
			H78.516z"/>
		<path fill="#FFFFFF" d="M78.978,75.865h-2.568v-1.381h0.513v0.777h0.473v-0.754h0.515v0.754h0.557v-0.819h0.512V75.865z"/>
		<path fill="#FFFFFF" d="M77.307,73.148h-0.164c-0.221,0-0.333,0.078-0.333,0.191c-0.004,0.188,0.1,0.233,0.267,0.233l1.272,0.003
			c0.145,0,0.23-0.059,0.23-0.217c0-0.205-0.213-0.222-0.37-0.222h-0.233v-0.604h0.314c0.441,0,0.751,0.255,0.751,0.87
			c0,0.557-0.294,0.772-0.819,0.772h-1.056c-0.559,0-0.819-0.258-0.819-0.81c0-0.515,0.22-0.822,0.744-0.822h0.216V73.148z"/>
		<path fill="#FFFFFF" d="M78.978,72.253h-2.568v-0.602h1.026v-0.008l-1.026-0.445v-0.616l1.135,0.548l1.434-0.583v0.637
			l-0.894,0.334l0.262,0.134h0.632V72.253z"/>
		<path fill="#FFFFFF" d="M78.978,70.359h-2.568v-0.603h0.985v-0.419h-0.985v-0.604h2.568v0.604h-1.068v0.419h1.068V70.359z"/>
		<path fill="#FFFFFF" d="M78.159,66.822c0.58,0,0.882,0.203,0.882,0.813s-0.302,0.822-0.882,0.822h-1.044
			c-0.494,0-0.769-0.296-0.769-0.822c0-0.528,0.274-0.813,0.769-0.813H78.159z M77.155,67.427c-0.157,0-0.346,0.014-0.346,0.213
			c0,0.191,0.188,0.215,0.346,0.215h1.057c0.146,0,0.367-0.023,0.367-0.219s-0.222-0.209-0.367-0.209H77.155z"/>
		<path fill="#FFFFFF" d="M78.978,66.521h-2.568v-1.418h0.513v0.814h0.456v-0.75h0.516v0.75h1.084V66.521z"/>
		<path fill="#FFFFFF" d="M78.978,64.809h-2.568v-1.418h0.513v0.814h0.456v-0.75h0.516v0.75h1.084V64.809z"/>
	</g>
	<path opacity="0.4" d="M8.356,54.711l4.46,0.503c0.796,0.128,1.21,0.769,1.239,1.398l0.013,10.227
		c0.045,0.744-0.386,1.43-1.291,1.539l-4.586,0.516c-0.952,0.013-1.459-0.604-1.522-1.333V55.994
		C6.75,55.157,7.312,54.557,8.356,54.711z"/>
	<path opacity="0.4" d="M24.12,49.445l3.933,0.457c0.702,0.116,1.067,0.698,1.093,1.271l0.013,15.855
		c0.039,0.676-0.341,1.298-1.139,1.396l-4.044,0.469c-0.839,0.011-1.286-0.549-1.342-1.211V50.611
		C22.705,49.852,23.201,49.306,24.12,49.445z"/>
	<g>
		<rect x="4.38" y="7.319" opacity="0.1" width="25.425" height="14.793"/>
		<polygon opacity="0.4" points="6.406,9.44 6.406,12.77 5.339,12.77 5.339,16.685 6.406,16.685 6.406,20.015 14.234,20.015 
			14.234,9.44 		"/>
		<rect x="17.263" y="9.44" opacity="0.4" width="4.043" height="10.574"/>
		<rect x="23.965" y="9.44" opacity="0.4" width="4.043" height="10.574"/>
	</g>
	<g>
		<rect x="4.38" y="23.444" opacity="0.1" width="25.425" height="14.793"/>
		<polygon opacity="0.4" points="6.406,25.565 6.406,28.894 5.339,28.894 5.339,32.81 6.406,32.81 6.406,36.139 14.234,36.139 
			14.234,25.565 		"/>
		<rect x="17.263" y="25.565" opacity="0.4" width="4.043" height="10.574"/>
		<rect x="23.965" y="25.565" opacity="0.4" width="4.043" height="10.574"/>
	</g>
</g>
</svg>
