<svg id="Inhalt" xmlns="http://www.w3.org/2000/svg" viewBox="0 0 80 80"><title>icons_tcpip_pressed</title><path d="M17.4,33.86H13.8V32.15H23v1.71h-3.6v14h-2Z"/><path d="M33.58,47.54a9.85,9.85,0,0,1-2.86.47c-5,0-7.07-3.78-7.07-8,0-4.91,2.86-8,7-8a7.13,7.13,0,0,1,3,.56v1.94a5.41,5.41,0,0,0-2.95-.79c-2.57,0-4.91,2-4.91,5.87,0,4.05,1.62,6.73,5,6.73a5.64,5.64,0,0,0,2.81-.74Z"/><path d="M35.86,32.15h3.78A4.53,4.53,0,0,1,43,33.36a4.37,4.37,0,0,1,1.24,3.24c0,3.06-1.78,4.68-5.11,4.68H37.84v6.57h-2Zm2,7.52h1.08c2.41,0,3.29-1.12,3.29-2.88,0-2.16-1.22-3-3.24-3H37.84Z"/><path d="M48.78,32h1.67L46.28,48H44.61Z"/><path d="M52.62,32.15h2V47.85h-2Z"/><path d="M57.78,32.15h3.78A4.53,4.53,0,0,1,65,33.36,4.37,4.37,0,0,1,66.2,36.6c0,3.06-1.78,4.68-5.11,4.68H59.76v6.57h-2Zm2,7.52h1.08c2.41,0,3.29-1.12,3.29-2.88,0-2.16-1.22-3-3.24-3H59.76Z"/></svg>