<svg id="pfade" xmlns="http://www.w3.org/2000/svg" viewBox="0 0 80 80">
  <defs>
    <style>
      .cls-1, .cls-2 {
        fill: none;
        stroke: #4794da;
        stroke-linecap: round;
        stroke-linejoin: round;
      }

      .cls-1 {
        stroke-width: 2px;
      }
    </style>
  </defs>
  <line class="cls-1" x1="31.82432" y1="53.8769" x2="25.3911" y2="41.2268"/>
  <line class="cls-1" x1="33.05932" y1="36.7717" x2="44.021" y2="28.3572"/>
  <line class="cls-2" x1="28.996" y1="30.9831" x2="41.0715" y2="24.3844"/>
  <line class="cls-1" x1="46.2876" y1="52.0903" x2="33.05932" y2="36.7717"/>
  <path class="cls-2" d="M29.9636,36.2579a2.3325,2.3325,0,1,1-2.3327-2.3327A2.3327,2.3327,0,0,1,29.9636,36.2579Z"/>
  <path class="cls-2" d="M48.8525,23.4979a2.33255,2.33255,0,1,1-2.3327-2.3329A2.3327,2.3327,0,0,1,48.8525,23.4979Z"/>
  <path class="cls-1" d="M33.0847,36.2579a5.4539,5.4539,0,1,1-5.4538-5.454A5.45436,5.45436,0,0,1,33.0847,36.2579Z"/>
  <line class="cls-1" x1="46.29832" y1="28.9493" x2="54.418" y2="33.668"/>
  <line class="cls-2" x1="51.8491" y1="24.5668" x2="59.8677" y2="33.668"/>
  <path class="cls-1" d="M45.8755,28.9305a5.45384,5.45384,0,1,1,6.0525-4.781A5.45406,5.45406,0,0,1,45.8755,28.9305Z"/>
  <g>
    <rect class="cls-1" x="53.95632" y="33.668" width="7.48508" height="7.4853"/>
    <line class="cls-1" x1="57.6987" y1="41.1533" x2="57.6987" y2="45.1727"/>
  </g>
  <path class="cls-2" d="M42.162,56.2099a2.3326,2.3326,0,1,1-2.3329-2.333A2.33251,2.33251,0,0,1,42.162,56.2099Z"/>
  <path class="cls-1" d="M18.5,61.5V57.4171H31.0348a8.57654,8.57654,0,0,1,17.1527,0H61.5V61.5"/>
</svg>
